<svg width="109" height="47" viewBox="0 0 109 47" fill="none" xmlns="http://www.w3.org/2000/svg">
<g clip-path="url(#clip0_48_382)">
<path fill-rule="evenodd" clip-rule="evenodd" d="M6.00917 28.453H0.802232V9.01519H6.00917V28.453V28.453ZM11.0076 20.9583C12.612 22.7199 15.055 24.0441 17.6189 24.0441C20.0234 24.0441 21.7069 22.5596 21.7069 20.5165C21.7069 16.9114 16.499 16.4702 12.7318 14.2674C10.5284 12.9834 8.76257 11.0602 8.76257 7.89206C8.76257 2.88419 13.3746 0 18.021 0C20.8651 0 23.5102 0.68179 26.1564 2.64513L23.3519 6.65127C22.2267 5.60954 20.3443 4.81051 18.5002 4.81051C16.4594 4.81051 14.1737 5.68923 14.1737 7.85302C14.1737 12.3827 27.118 10.9779 27.118 20.4379C27.118 25.4046 22.6674 28.8509 17.6189 28.8509C13.8528 28.8509 10.3669 27.2914 7.48113 24.6431L11.0076 20.9583ZM43.2991 28.453C42.6188 28.6915 41.053 28.8509 40.0529 28.8509C36.9265 28.8509 34.6449 27.8092 33.3197 26.0464C32.3186 24.7244 31.8769 23.0034 31.8769 20.2358V13.4235H26.4679V9.01519H31.8769V3.60514H37.0869V9.01519H43.4991V13.4235H37.0869V20.8349C37.0869 22.0417 37.2859 22.7596 37.7287 23.2825C38.2464 23.8846 39.0882 24.2431 40.3706 24.2431C41.1333 24.2431 42.1376 24.1264 42.498 24.0441L43.2991 28.453ZM54.8515 8.61461C60.7398 8.61461 65.1893 13.1438 65.1893 18.7544C65.1893 24.364 60.7398 28.8509 54.8515 28.8509C48.9623 28.8509 44.5117 24.364 44.5117 18.7544C44.5117 13.1438 48.9623 8.61461 54.8515 8.61461ZM54.8515 24.0441C57.8967 24.0441 59.9783 21.6793 59.9783 18.7544C59.9783 15.828 57.8967 13.4235 54.8515 13.4235C51.8043 13.4235 49.7228 15.828 49.7228 18.7544C49.7228 21.6793 51.8043 24.0441 54.8515 24.0441ZM85.7606 24.4847C83.4738 27.531 80.5871 28.8509 76.9428 28.8509C70.9328 28.8509 66.5228 24.364 66.5228 18.7544C66.5228 13.1042 71.0515 8.61461 76.9834 8.61461C80.3495 8.61461 83.354 10.1794 85.1573 12.5015L81.4705 15.7472C80.4308 14.3856 78.8691 13.4235 76.9834 13.4235C73.9778 13.4235 71.7338 15.79 71.7338 18.7544C71.7338 21.8 73.9393 24.0441 77.1054 24.0441C79.2274 24.0441 80.91 22.7596 81.7518 21.4792L85.7606 24.4847ZM97.4766 17.7516L108.178 28.453H101.163L92.9469 20.0342V28.453H87.74V0.400583H92.9469V15.3092L99.6384 9.01519H106.976L97.4766 17.7516ZM0 3.40618C0 1.52413 1.52627 0 3.40671 0C5.28822 0 6.81236 1.52413 6.81236 3.40618C6.81236 5.28502 5.28822 6.81225 3.40671 6.81225C1.52627 6.81225 0 5.28502 0 3.40618Z" fill="white"/>
<path fill-rule="evenodd" clip-rule="evenodd" d="M0.986417 42.5742H2.03556V35.2982H0.97168V34.1784H3.25226V37.4217C3.96853 36.6586 4.79757 36.2962 5.82055 36.2962C7.99401 36.2962 9.54818 37.9559 9.54818 40.0795C9.54818 42.225 7.96166 43.8747 5.77932 43.8747C4.79757 43.8747 4.03292 43.5282 3.27437 42.7562V43.7161H0.986417V42.5742ZM5.75594 37.4731C4.40863 37.4731 3.25226 38.587 3.25226 40.1192C3.25226 41.5559 4.40863 42.6931 5.73831 42.6931C7.09428 42.6931 8.24776 41.6087 8.24776 40.0531C8.24776 38.5475 7.09428 37.4731 5.75594 37.4731ZM11.1257 44.9107H12.2542L12.8193 43.499L10.4828 37.6082H9.53046V36.4693H12.7488V37.6082H11.7553L13.4459 41.9109L15.1482 37.6082H14.1591V36.4693H17.3642V37.6082H16.425L13.5266 44.9107H14.5304V46.0466H11.1257V44.9107V44.9107ZM24.9135 38.9377H30.7072V43.7161H29.6771V42.2105C28.6292 43.3521 27.4332 43.9039 25.992 43.9039C23.1332 43.9039 21.1051 41.6703 21.1051 38.882C21.1051 36.305 23.1743 33.9862 26.1167 33.9862C27.216 33.9862 28.0921 34.2929 29.0197 34.9812V34.1784H30.0631V36.7365H28.8832C28.0628 35.7855 27.1689 35.3245 26.0418 35.3245C24.0035 35.3245 22.4993 36.9786 22.4993 38.9245C22.4993 41.0157 24.0564 42.5861 26.0243 42.5861C27.5051 42.5861 28.8333 41.6087 29.2749 40.0882H24.9135V38.9377V38.9377ZM39.1545 41.4209C38.5382 43.0029 37.2085 43.8863 35.6148 43.8863C33.4941 43.8863 31.8315 42.2105 31.8315 40.1014C31.8315 37.9471 33.5881 36.2755 35.5752 36.2755C37.6929 36.2755 39.3835 37.928 39.3835 40.1559C39.3835 40.2644 39.3835 40.3995 39.3586 40.5726H33.1582C33.3593 41.8626 34.385 42.7078 35.5986 42.7078C36.5145 42.7078 37.2893 42.2648 37.7325 41.4209H39.1545V41.4209ZM38.0437 39.5425C37.7178 38.1995 36.8051 37.4349 35.6148 37.4349C34.4084 37.4349 33.3959 38.2538 33.1582 39.5425H38.0437ZM40.8848 37.5905H39.7679V36.4693H40.8848V34.1784H42.1028V36.4693H43.1756V37.5905H42.1028V42.5742H43.1756V43.7161H40.8848V37.5905ZM44.9455 37.5905H43.8347V36.4693H44.9455V34.1784H46.168V36.4693H47.235V37.5905H46.168V42.5742H47.235V43.7161H44.9455V37.5905V37.5905ZM49.5536 44.9107H50.6822L51.2487 43.499L48.9094 37.6082H47.9599V36.4693H51.1782V37.6082H50.1832L51.8724 41.9109L53.5835 37.6082H52.5871V36.4693H55.7996V37.6082H54.856L51.9531 44.9107H52.9658V46.0466H49.5536V44.9107V44.9107ZM59.47 42.5612H60.5296V35.3245H59.47V34.1784H62.9452V35.3245H61.8547V42.5612H62.9452V43.7161H59.47V42.5612V42.5612ZM63.9621 42.5742H64.9939V37.5905H63.9724V36.4693H66.2002V37.4995C66.6463 36.7188 67.2743 36.3504 68.174 36.3504C69.2336 36.3504 70.007 36.8568 70.4486 37.7931C71.0122 36.804 71.702 36.3373 72.6793 36.3373C74.4655 36.3373 75.2828 37.636 75.2828 39.4308V42.5742H76.3291V43.7161H73.0258V42.5742H74.0604V39.3633C74.0604 38.1423 73.4968 37.4879 72.4946 37.4879C71.3395 37.4879 70.7217 38.3449 70.7217 40.0531V42.5742H71.7725V43.7161H68.494V42.5742H69.5389V40.1704C69.5389 38.4696 69.351 37.4879 67.9304 37.4879C66.8312 37.4879 66.2002 38.3449 66.2002 40.0531V42.5742H67.2494V43.7161H63.9621V42.5742V42.5742ZM82.9786 42.7562C82.2156 43.5282 81.4466 43.8747 80.4809 43.8747C78.2825 43.8747 76.7122 42.225 76.7122 40.0795C76.7122 37.9559 78.2267 36.305 80.431 36.305C81.4627 36.305 82.2891 36.6425 83.0095 37.4217V36.4693H85.2446V37.5905H84.2159V42.5612H85.2565V43.7161H82.9786V42.7562ZM80.4985 37.4731C79.1572 37.4731 78.0007 38.5475 78.0007 40.0531C78.0007 41.6087 79.1572 42.6931 80.5058 42.6931C81.8325 42.6931 82.989 41.5647 82.989 40.1192C82.989 38.587 81.8325 37.4731 80.4985 37.4731ZM87.6939 44.1417C87.9508 44.9107 88.6332 45.3216 89.6546 45.3216C90.9461 45.3216 92.0307 44.3941 92.0834 43.0572L92.0951 42.6931C91.3717 43.499 90.5778 43.8599 89.5769 43.8599C87.4299 43.8599 85.8478 42.2368 85.8478 40.0795C85.8478 37.9985 87.3769 36.2962 89.5358 36.2962C90.5778 36.2962 91.4127 36.6704 92.1113 37.4879V36.4693H94.3508V37.6082H93.3192V42.5244C93.3192 45.0134 91.881 46.3841 89.6546 46.3841C87.895 46.3841 86.746 45.6327 86.2777 44.1417H87.6939V44.1417ZM92.1113 40.1309C92.1113 38.6032 90.9695 37.4731 89.6268 37.4731C88.2898 37.4731 87.1349 38.5591 87.1349 40.0648C87.1349 41.635 88.3002 42.7078 89.6268 42.7078C90.9564 42.7078 92.1113 41.5647 92.1113 40.1309ZM102.13 41.4209C101.512 43.0029 100.187 43.8863 98.5877 43.8863C96.4685 43.8863 94.7999 42.2105 94.7999 40.1014C94.7999 37.9471 96.5624 36.2755 98.5495 36.2755C100.669 36.2755 102.361 37.928 102.361 40.1559C102.361 40.2644 102.361 40.3995 102.334 40.5726H96.1294C96.3364 41.8626 97.3563 42.7078 98.5745 42.7078C99.4901 42.7078 100.265 42.2648 100.705 41.4209H102.13V41.4209ZM101.017 39.5425C100.697 38.1995 99.7823 37.4349 98.5877 37.4349C97.3813 37.4349 96.373 38.2538 96.1294 39.5425H101.017ZM103.106 41.4326H104.317C104.317 42.1312 104.919 42.8326 105.818 42.8326C106.58 42.8326 107.029 42.4246 107.029 41.7246C107.029 40.9513 106.448 40.6665 105.174 40.4096C103.552 40.0795 103.203 39.2342 103.203 38.3566C103.203 37.1503 104.057 36.2653 105.428 36.2653C106.022 36.2653 106.487 36.4693 106.878 36.8948V36.4546H107.883V38.3859H106.766C106.597 37.6757 106.194 37.3558 105.509 37.3558C104.839 37.3558 104.462 37.6874 104.462 38.2538C104.462 39.0566 105.118 39.2078 106.247 39.4969C107.656 39.877 108.31 40.4669 108.31 41.647C108.31 43.0029 107.368 43.9039 105.87 43.9039C105.184 43.9039 104.665 43.6883 104.207 43.1877V43.7249H103.106V41.4326V41.4326Z" fill="white"/>
</g>
<defs>
<clipPath id="clip0_48_382">
<rect width="108.31" height="46.3841" fill="white"/>
</clipPath>
</defs>
</svg>
