<svg width="109" height="29" viewBox="0 0 109 29" fill="none" xmlns="http://www.w3.org/2000/svg">
  <g clip-path="url(#clip0_48_377)">
    <path fill-rule="evenodd" clip-rule="evenodd" d="M6.00917 28.453H0.802232V9.01519H6.00917V28.453V28.453ZM11.0076 20.9583C12.612 22.7199 15.055 24.0441 17.6189 24.0441C20.0234 24.0441 21.7069 22.5596 21.7069 20.5165C21.7069 16.9114 16.499 16.4702 12.7318 14.2674C10.5284 12.9834 8.76257 11.0602 8.76257 7.89206C8.76257 2.88419 13.3746 0 18.021 0C20.8651 0 23.5102 0.68179 26.1564 2.64513L23.3519 6.65127C22.2267 5.60954 20.3443 4.81051 18.5002 4.81051C16.4594 4.81051 14.1737 5.68923 14.1737 7.85302C14.1737 12.3827 27.118 10.9779 27.118 20.4379C27.118 25.4046 22.6674 28.8509 17.6189 28.8509C13.8528 28.8509 10.3669 27.2914 7.48113 24.6431L11.0076 20.9583ZM43.2991 28.453C42.6188 28.6915 41.053 28.8509 40.0529 28.8509C36.9265 28.8509 34.6449 27.8092 33.3197 26.0464C32.3186 24.7244 31.8769 23.0034 31.8769 20.2358V13.4235H26.4679V9.01519H31.8769V3.60514H37.0869V9.01519H43.4991V13.4235H37.0869V20.8349C37.0869 22.0417 37.2859 22.7596 37.7287 23.2825C38.2464 23.8846 39.0882 24.2431 40.3706 24.2431C41.1333 24.2431 42.1376 24.1264 42.498 24.0441L43.2991 28.453ZM54.8515 8.61461C60.7398 8.61461 65.1893 13.1438 65.1893 18.7544C65.1893 24.364 60.7398 28.8509 54.8515 28.8509C48.9623 28.8509 44.5117 24.364 44.5117 18.7544C44.5117 13.1438 48.9623 8.61461 54.8515 8.61461ZM54.8515 24.0441C57.8967 24.0441 59.9783 21.6793 59.9783 18.7544C59.9783 15.828 57.8967 13.4235 54.8515 13.4235C51.8043 13.4235 49.7228 15.828 49.7228 18.7544C49.7228 21.6793 51.8043 24.0441 54.8515 24.0441ZM85.7606 24.4847C83.4738 27.531 80.5871 28.8509 76.9428 28.8509C70.9328 28.8509 66.5228 24.364 66.5228 18.7544C66.5228 13.1042 71.0515 8.61461 76.9834 8.61461C80.3495 8.61461 83.354 10.1794 85.1573 12.5015L81.4705 15.7472C80.4308 14.3856 78.8691 13.4235 76.9834 13.4235C73.9778 13.4235 71.7338 15.79 71.7338 18.7544C71.7338 21.8 73.9393 24.0441 77.1054 24.0441C79.2274 24.0441 80.91 22.7596 81.7518 21.4792L85.7606 24.4847ZM97.4766 17.7516L108.178 28.453H101.163L92.9469 20.0342V28.453H87.74V0.400583H92.9469V15.3092L99.6384 9.01519H106.976L97.4766 17.7516ZM0 3.40618C0 1.52413 1.52627 0 3.40671 0C5.28822 0 6.81236 1.52413 6.81236 3.40618C6.81236 5.28502 5.28822 6.81225 3.40671 6.81225C1.52627 6.81225 0 5.28502 0 3.40618Z" fill="white"/>
    </g>
    <defs>
      <clipPath id="clip0_48_377">
        <rect width="108.178" height="28.8509" fill="white"/>
      </clipPath>
  </defs>
</svg>
